HIERARCHY
ROOT __0
{
	OFFSET 0.0 0.0 0.0
	CHANNELS 0
	JOINT spine
	{
		OFFSET 0.000000 -0.014402 0.264660
		CHANNELS 6 Xposition Yposition Zposition Xrotation Yrotation Zrotation
		JOINT spine top
		{
			OFFSET -0.000000 0.058246 0.209758
			CHANNELS 3 Xrotation Yrotation Zrotation
			JOINT NeckBot
			{
				OFFSET 0.000000 -0.034711 0.125681
				CHANNELS 3 Xrotation Yrotation Zrotation
				JOINT NeckTop
				{
					OFFSET -0.000000 -0.014527 0.216432
					CHANNELS 3 Xrotation Yrotation Zrotation
					End Site
					{
						OFFSET 0.000000 0.018502 0.278669
					}
				}
			}
			JOINT ArmStartTop.L
			{
				OFFSET 0.016245 -0.034711 0.119841
				CHANNELS 6 Xposition Yposition Zposition Xrotation Yrotation Zrotation
				JOINT ArmMidTop.L
				{
					OFFSET 0.044463 0.000000 -0.029495
					CHANNELS 3 Xrotation Yrotation Zrotation
					JOINT ArmEndTop.L
					{
						OFFSET 0.393913 -0.000000 -0.000000
						CHANNELS 3 Xrotation Yrotation Zrotation
						End Site
						{
							OFFSET 0.461072 0.000000 0.000000
						}
					}
				}
			}
			JOINT ArmStart.R
			{
				OFFSET -0.016272 -0.034711 0.121166
				CHANNELS 6 Xposition Yposition Zposition Xrotation Yrotation Zrotation
				JOINT ArmMid.R
				{
					OFFSET -0.042500 0.000000 -0.029253
					CHANNELS 3 Xrotation Yrotation Zrotation
					JOINT ArmEnd.R
					{
						OFFSET -0.393079 -0.000000 0.000000
						CHANNELS 3 Xrotation Yrotation Zrotation
						End Site
						{
							OFFSET -0.483935 -0.000000 0.000000
						}
					}
				}
			}
		}
		JOINT ArmStartBot.L
		{
			OFFSET 0.038272 0.023939 0.230171
			CHANNELS 6 Xposition Yposition Zposition Xrotation Yrotation Zrotation
			JOINT ArmMidBot.L
			{
				OFFSET 0.048653 0.000000 -0.026886
				CHANNELS 3 Xrotation Yrotation Zrotation
				JOINT ArmEndBot.L
				{
					OFFSET 0.367740 -0.000000 -0.000000
					CHANNELS 3 Xrotation Yrotation Zrotation
					End Site
					{
						OFFSET 0.466508 -0.000000 -0.000000
					}
				}
			}
		}
		JOINT spider thingy.L
		{
			OFFSET 0.025407 0.014563 0.059552
			CHANNELS 6 Xposition Yposition Zposition Xrotation Yrotation Zrotation
			JOINT Bone.016
			{
				OFFSET 0.041396 -0.045012 0.007200
				CHANNELS 3 Xrotation Yrotation Zrotation
				End Site
				{
					OFFSET 0.011846 -0.065345 0.009206
				}
			}
		}
		JOINT spider thingy.R
		{
			OFFSET -0.027532 0.007880 0.057875
			CHANNELS 6 Xposition Yposition Zposition Xrotation Yrotation Zrotation
			JOINT Bone.018
			{
				OFFSET -0.037885 -0.045958 0.008877
				CHANNELS 3 Xrotation Yrotation Zrotation
				End Site
				{
					OFFSET -0.005129 -0.065345 0.009206
				}
			}
		}
	}
	JOINT pelvis top
	{
		OFFSET 0.000000 -0.014402 0.264660
		CHANNELS 6 Xposition Yposition Zposition Xrotation Yrotation Zrotation
		JOINT pelvis.L
		{
			OFFSET -0.000000 0.000000 -0.102221
			CHANNELS 3 Xrotation Yrotation Zrotation
			JOINT leg.L
			{
				OFFSET 0.092417 0.000000 -0.033701
				CHANNELS 3 Xrotation Yrotation Zrotation
				JOINT foot.L
				{
					OFFSET 0.022013 0.000000 -0.396427
					CHANNELS 3 Xrotation Yrotation Zrotation
					End Site
					{
						OFFSET -0.022013 0.000000 -0.207485
					}
				}
			}
		}
		JOINT pelvis.R
		{
			OFFSET 0.000000 0.000000 -0.102221
			CHANNELS 3 Xrotation Yrotation Zrotation
			JOINT Leg.R
			{
				OFFSET -0.089835 -0.000000 -0.034513
				CHANNELS 3 Xrotation Yrotation Zrotation
				JOINT foot.R
				{
					OFFSET -0.009175 0.000000 -0.383270
					CHANNELS 3 Xrotation Yrotation Zrotation
					End Site
					{
						OFFSET 0.009178 0.000000 -0.226021
					}
				}
			}
		}
	}
}
MOTION
Frames: 11
Frame Time: 0.041667
0.000000 -0.014402 0.264660 113.172205 0.000000 -0.000000 -31.068639 0.000000 -0.000000 23.737668 -0.000000 -0.000000 -38.832416 2.351105 6.122991 0.016245 -0.034711 0.119841 -3.107618 -9.563721 10.888384 -2.601458 13.567923 -25.887892 2.874868 5.718436 -80.420246 -0.016272 -0.034711 0.121166 6.992719 8.152207 -11.001137 -25.159183 -20.164764 16.195348 11.239168 -6.069946 78.244106 0.038272 0.023939 0.230171 0.000001 0.000001 0.000000 -85.311508 18.313433 -34.802280 -19.921732 -30.639467 -79.576505 0.025407 0.014563 0.059552 -0.000001 0.000000 0.000002 -0.000000 -0.000001 -0.000004 -0.027532 0.007880 0.057875 0.000002 -0.000000 -0.000000 0.000002 -0.000001 0.000001 0.000000 -0.014402 0.264660 54.703805 2.055257 -0.321962 13.953776 0.000002 0.000001 -53.088755 0.690781 -1.427463 53.855854 0.679753 0.100210 13.953779 0.000002 0.000000 -55.075811 0.727444 -1.484669 55.617144 0.748581 0.135256 
0.000000 -0.014402 0.264660 113.172205 0.000000 -0.000000 -31.341747 -0.000000 -0.000000 23.417360 -0.000000 -0.000000 -39.647991 5.146100 7.896859 0.016245 -0.034711 0.119841 -3.107618 -9.563721 10.888384 -2.547846 13.696356 -26.380687 2.874870 5.718435 -80.420246 -0.016272 -0.034711 0.121166 6.992719 8.152208 -11.001139 -25.116947 -20.267500 16.407212 11.239167 -6.069947 78.244106 0.038272 0.023939 0.230171 0.000001 0.000001 0.000000 -85.311508 18.313433 -34.802280 -19.921732 -30.639467 -79.576505 0.025407 0.014563 0.059552 -0.000001 0.000000 0.000002 -0.000000 -0.000001 -0.000004 -0.027532 0.007880 0.057875 0.000002 -0.000000 -0.000000 0.000002 -0.000001 0.000001 0.000000 -0.014402 0.264660 55.094164 2.055256 -0.321962 13.953778 0.000003 0.000000 -54.001088 0.707703 -1.455976 53.855854 0.679754 0.100210 13.953782 0.000002 0.000000 -55.430568 0.734351 -1.495553 55.617141 0.748581 0.135256 
0.000000 -0.014402 0.264660 113.172205 0.000000 -0.000000 -31.614852 0.000000 -0.000000 23.097033 -0.000000 -0.000000 -40.560115 7.928799 9.730405 0.016245 -0.034711 0.119841 -3.107618 -9.563721 10.888384 -2.493063 13.824351 -26.873933 2.874869 5.718434 -80.420246 -0.016272 -0.034711 0.121166 6.992719 8.152207 -11.001141 -25.074272 -20.370100 16.619297 11.239166 -6.069948 78.244106 0.038272 0.023939 0.230171 0.000001 0.000001 0.000000 -85.311508 18.313433 -34.802280 -19.921732 -30.639467 -79.576505 0.025407 0.014563 0.059552 -0.000001 0.000000 0.000002 -0.000000 -0.000001 -0.000004 -0.027532 0.007880 0.057875 0.000002 -0.000000 -0.000000 0.000002 -0.000001 0.000001 0.000000 -0.014402 0.264660 55.484557 2.055257 -0.321962 13.953782 0.000002 0.000000 -54.913778 0.725083 -1.484222 53.855847 0.679752 0.100210 13.953785 0.000002 0.000000 -55.785365 0.741327 -1.506397 55.617141 0.748581 0.135257 
0.000000 -0.014402 0.264660 113.172205 0.000000 -0.000000 -31.887974 0.000000 -0.000000 22.776704 -0.000000 -0.000000 -41.573333 10.690283 11.630177 0.016245 -0.034711 0.119841 -3.107619 -9.563722 10.888385 -2.437112 13.951892 -27.367612 2.874869 5.718434 -80.420246 -0.016272 -0.034711 0.121166 6.992718 8.152208 -11.001142 -25.031153 -20.472544 16.831615 11.239168 -6.069949 78.244106 0.038272 0.023939 0.230171 0.000001 0.000001 0.000000 -85.311508 18.313433 -34.802280 -19.921732 -30.639467 -79.576505 0.025407 0.014563 0.059552 -0.000001 0.000000 0.000002 -0.000000 -0.000001 -0.000004 -0.027532 0.007880 0.057875 0.000002 -0.000000 -0.000000 0.000002 -0.000001 0.000001 0.000000 -0.014402 0.264660 55.874960 2.055257 -0.321962 13.953778 0.000002 0.000001 -55.826671 0.742916 -1.512197 53.855847 0.679753 0.100211 13.953787 0.000002 0.000000 -56.140166 0.748369 -1.517197 55.617138 0.748581 0.135256 
0.000000 -0.014402 0.264660 113.172205 0.000000 -0.000000 -32.161090 0.000000 -0.000000 22.456373 -0.000000 -0.000000 -42.692565 13.421268 13.602916 0.016245 -0.034711 0.119841 -3.107618 -9.563721 10.888384 -2.379999 14.078967 -27.861716 2.874869 5.718433 -80.420246 -0.016272 -0.034711 0.121166 6.992719 8.152207 -11.001139 -24.987614 -20.574844 17.044158 11.239170 -6.069948 78.244106 0.038272 0.023939 0.230171 0.000001 0.000001 0.000000 -85.311494 18.313433 -34.802276 -19.921731 -30.639467 -79.576505 0.025407 0.014563 0.059552 -0.000001 0.000000 0.000002 -0.000000 -0.000001 -0.000004 -0.027532 0.007880 0.057875 0.000002 -0.000000 -0.000000 0.000002 -0.000001 0.000001 0.000000 -0.014402 0.264660 56.265384 2.055257 -0.321963 13.953773 0.000002 0.000000 -56.739683 0.761194 -1.539888 53.855847 0.679753 0.100210 13.953779 0.000002 0.000000 -56.494977 0.755479 -1.527954 55.617144 0.748581 0.135256 
0.000000 -0.014402 0.264660 113.172205 0.000000 -0.000000 -32.434215 0.000000 -0.000000 22.136027 -0.000000 -0.000000 -43.922979 16.112140 15.655528 0.016245 -0.034711 0.119841 -3.107618 -9.563721 10.888384 -2.321722 14.205557 -28.356227 2.874868 5.718435 -80.420246 -0.016272 -0.034711 0.121166 6.992719 8.152207 -11.001139 -24.943632 -20.676989 17.256924 11.239168 -6.069947 78.244106 0.038272 0.023939 0.230171 0.000001 0.000001 0.000000 -85.311494 18.313433 -34.802276 -19.921731 -30.639467 -79.576505 0.025407 0.014563 0.059552 -0.000001 0.000000 0.000002 -0.000000 -0.000001 -0.000004 -0.027532 0.007880 0.057875 0.000002 -0.000000 -0.000000 0.000002 -0.000001 0.000001 0.000000 -0.014402 0.264660 56.655815 2.055257 -0.321963 13.953778 0.000002 0.000001 -57.652698 0.779911 -1.567285 53.855850 0.679753 0.100211 13.953779 0.000002 0.000001 -56.849782 0.762655 -1.538668 55.617138 0.748581 0.135257 
0.000000 -0.014402 0.264660 113.172205 0.000000 -0.000000 -32.707327 0.000000 -0.000000 21.815699 -0.000000 -0.000000 -45.269941 18.753017 17.794989 0.016245 -0.034711 0.119841 -3.107619 -9.563721 10.888384 -2.262288 14.331653 -28.851132 2.874868 5.718436 -80.420246 -0.016272 -0.034711 0.121166 6.992719 8.152207 -11.001137 -24.899224 -20.778982 17.469920 11.239166 -6.069949 78.244106 0.038272 0.023939 0.230171 0.000001 0.000001 0.000000 -85.311494 18.313433 -34.802276 -19.921731 -30.639467 -79.576505 0.025407 0.014563 0.059552 -0.000001 0.000000 0.000002 -0.000000 -0.000001 -0.000004 -0.027532 0.007880 0.057875 0.000002 -0.000000 -0.000000 0.000002 -0.000001 0.000001 0.000000 -0.014402 0.264660 57.046218 2.055256 -0.321962 13.953776 0.000002 0.000000 -58.565594 0.799060 -1.594378 53.855850 0.679753 0.100210 13.953781 0.000002 0.000000 -57.204576 0.769897 -1.549333 55.617138 0.748581 0.135256 
0.000000 -0.014402 0.264660 113.172205 0.000000 -0.000000 -32.980443 -0.000000 -0.000000 21.495377 -0.000000 -0.000000 -46.738920 21.333804 20.028275 0.016245 -0.034711 0.119841 -3.107616 -9.563722 10.888385 -2.201711 14.457234 -29.346413 2.874866 5.718436 -80.420246 -0.016272 -0.034711 0.121166 6.992721 8.152208 -11.001141 -24.854372 -20.880817 17.683136 11.239170 -6.069948 78.244106 0.038272 0.023939 0.230171 0.000001 0.000001 0.000000 -85.311494 18.313433 -34.802276 -19.921731 -30.639467 -79.576505 0.025407 0.014563 0.059552 -0.000001 0.000000 0.000002 -0.000000 -0.000001 -0.000004 -0.027532 0.007880 0.057875 0.000002 -0.000000 -0.000000 0.000002 -0.000001 0.000001 0.000000 -0.014402 0.264660 57.436611 2.055257 -0.321962 13.953780 0.000003 0.000000 -59.478250 0.818633 -1.621152 53.855854 0.679754 0.100211 13.953779 0.000002 0.000000 -57.559370 0.777205 -1.559955 55.617138 0.748581 0.135256 
0.000000 -0.014402 0.264660 113.172205 0.000000 -0.000000 -33.253544 -0.000000 -0.000000 21.175063 -0.000000 -0.000000 -48.335323 23.844245 22.362193 0.016245 -0.034711 0.119841 -3.107618 -9.563721 10.888384 -2.139979 14.582293 -29.842056 2.874868 5.718435 -80.420246 -0.016272 -0.034711 0.121166 6.992719 8.152207 -11.001139 -24.809093 -20.982491 17.896581 11.239172 -6.069947 78.244106 0.038272 0.023939 0.230171 0.000001 0.000001 0.000000 -85.311494 18.313433 -34.802276 -19.921731 -30.639467 -79.576505 0.025407 0.014563 0.059552 -0.000001 0.000000 0.000002 -0.000000 -0.000001 -0.000004 -0.027532 0.007880 0.057875 0.000002 -0.000000 -0.000000 0.000002 -0.000001 0.000001 0.000000 -0.014402 0.264660 57.826977 2.055257 -0.321963 13.953779 0.000002 0.000001 -60.390552 0.838621 -1.647604 53.855854 0.679753 0.100211 13.953780 0.000002 0.000000 -57.914130 0.784577 -1.570534 55.617138 0.748581 0.135256 
0.000000 -0.014402 0.264660 113.172205 0.000000 -0.000000 -33.526636 0.000000 -0.000000 20.854781 -0.000000 -0.000000 -50.064242 26.274023 24.803188 0.016245 -0.034711 0.119841 -3.107618 -9.563721 10.888384 -2.077108 14.706811 -30.338047 2.874868 5.718434 -80.420246 -0.016272 -0.034711 0.121166 6.992719 8.152207 -11.001137 -24.763377 -21.084005 18.110248 11.239172 -6.069947 78.244106 0.038272 0.023939 0.230171 0.000001 0.000001 0.000000 -85.311494 18.313433 -34.802276 -19.921731 -30.639467 -79.576505 0.025407 0.014563 0.059552 -0.000001 0.000000 0.000002 -0.000000 -0.000001 -0.000004 -0.027532 0.007880 0.057875 0.000002 -0.000000 -0.000000 0.000002 -0.000001 0.000001 0.000000 -0.014402 0.264660 58.217309 2.055257 -0.321963 13.953776 0.000002 0.000000 -61.302403 0.859019 -1.673720 53.855847 0.679753 0.100211 13.953779 0.000002 0.000000 -58.268863 0.792016 -1.581064 55.617138 0.748581 0.135256 
0.000000 -0.014402 0.264660 113.172205 0.000000 -0.000000 -33.526636 0.000000 -0.000000 19.883318 -0.000000 -0.000000 -49.844774 22.939330 22.159640 0.016245 -0.034711 0.119841 -3.107618 -9.563721 10.888384 -2.151665 14.564207 -29.728969 2.900944 5.825651 -80.800332 -0.016272 -0.034711 0.121166 6.992719 8.152207 -11.001137 -24.731816 -21.130415 18.266041 11.209514 -5.986151 78.017918 0.038272 0.023939 0.230171 0.000001 0.000001 0.000000 -72.976801 18.326135 -35.230823 -18.889213 -30.469887 -76.702007 0.025407 0.014563 0.059552 -0.000001 0.000000 0.000002 -0.000000 -0.000001 -0.000004 -0.027532 0.007880 0.057875 0.000002 -0.000000 -0.000000 0.000002 -0.000001 0.000001 0.000000 -0.014402 0.264660 58.958261 2.055256 -0.321962 13.953779 0.000003 0.000000 -62.203878 0.879591 -1.699220 53.329069 0.659258 0.089427 13.953784 0.000002 0.000000 -58.472334 0.796311 -1.587081 55.403295 0.740132 0.131147 
